# xmcd
#
# Track frame offsets:
#	182
#	18952
#	31652
#	44192
#	60485
#	78210
#	88752
#	101382
#	111960
#	124145
#	137712
#	160062
#	171452
#	183585
#	200420
#
# Disc length: 3048 seconds
#
# Revision: 0
# Processed by: cddbd v1.5.1PL0 Copyright (c) Steve Scherf et al.
# Submitted via: dBpowerAMP V4.0
#
DISCID=c60be60f
DTITLE=Various Artist - Le Meilleur du Blues Cd1
DYEAR=1994
DGENRE=Blues
TTITLE0=Shake it baby (John Lee Hooker)
TTITLE1=Baby Lee (John Lee Hooker)
TTITLE2=She's got it (Muddy Waters)
TTITLE3=Everything gonna be alright (Muddy Waters)
TTITLE4=Found my baby crying (Lighthnin' Hopkins)
TTITLE5=Coffee house blues (Lighthnin' Hopkins)
TTITLE6=Shame, shame, shame (Jimmy Reed)
TTITLE7=Baby what you want me to do (Jimmy Reed)
TTITLE8=Wish me well (Memphis Slim)
TTITLE9=Bad luck (Albert King/Otis Rush)
TTITLE10=Sweet home Chicago (Luther Allison)
TTITLE11=Please don't go (John Lee Hooker)
TTITLE12=I'm in the mood (John Lee Hooker)
TTITLE13=Little red rooster (Howlin' Wolf/Eric Clapton/Stevie Winwood)
TTITLE14=I found a true love (Buddy Guy)
EXTD=
EXTT0=
EXTT1=
EXTT2=
EXTT3=
EXTT4=
EXTT5=
EXTT6=
EXTT7=
EXTT8=
EXTT9=
EXTT10=
EXTT11=
EXTT12=
EXTT13=
EXTT14=
PLAYORDER=
